<mxfile host="app.diagrams.net" agent="Mozilla/5.0 (Windows NT 10.0; Win64; x64) AppleWebKit/537.36 (KHTML, like Gecko) Chrome/134.0.0.0 Safari/537.36" version="26.1.1">
  <diagram name="Page-1" id="xgDK-HJFfKMUSX0Ajwtn">
    <mxGraphModel dx="2152" dy="1846" grid="1" gridSize="10" guides="1" tooltips="1" connect="1" arrows="1" fold="1" page="1" pageScale="1" pageWidth="850" pageHeight="1100" math="0" shadow="0">
      <root>
        <mxCell id="0" />
        <mxCell id="1" parent="0" />
        <mxCell id="n3sOGA-Tr4YOv2R35fIZ-48" value="" style="rounded=0;whiteSpace=wrap;html=1;dashed=1;dashPattern=12 12;fillColor=#e1d5e7;strokeColor=#9673a6;" vertex="1" parent="1">
          <mxGeometry x="610" y="10" width="150" height="170" as="geometry" />
        </mxCell>
        <mxCell id="n3sOGA-Tr4YOv2R35fIZ-47" value="" style="rounded=0;whiteSpace=wrap;html=1;dashed=1;dashPattern=12 12;fillColor=#d5e8d4;strokeColor=#82b366;" vertex="1" parent="1">
          <mxGeometry x="110" y="10" width="500" height="330" as="geometry" />
        </mxCell>
        <mxCell id="n3sOGA-Tr4YOv2R35fIZ-46" value="" style="rounded=0;whiteSpace=wrap;html=1;dashed=1;dashPattern=12 12;fillColor=#ffe6cc;strokeColor=#d79b00;" vertex="1" parent="1">
          <mxGeometry x="610" y="180" width="150" height="160" as="geometry" />
        </mxCell>
        <mxCell id="n3sOGA-Tr4YOv2R35fIZ-45" value="" style="rounded=0;whiteSpace=wrap;html=1;dashed=1;dashPattern=12 12;fillColor=#f5f5f5;fontColor=#333333;strokeColor=#666666;" vertex="1" parent="1">
          <mxGeometry x="-40" y="10" width="150" height="330" as="geometry" />
        </mxCell>
        <mxCell id="n3sOGA-Tr4YOv2R35fIZ-44" value="" style="rounded=0;whiteSpace=wrap;html=1;dashed=1;dashPattern=12 12;fillColor=#dae8fc;strokeColor=#6c8ebf;" vertex="1" parent="1">
          <mxGeometry x="-40" y="340" width="800" height="130" as="geometry" />
        </mxCell>
        <mxCell id="n3sOGA-Tr4YOv2R35fIZ-5" style="edgeStyle=orthogonalEdgeStyle;rounded=0;orthogonalLoop=1;jettySize=auto;html=1;" edge="1" parent="1" source="n3sOGA-Tr4YOv2R35fIZ-1" target="n3sOGA-Tr4YOv2R35fIZ-4">
          <mxGeometry relative="1" as="geometry" />
        </mxCell>
        <mxCell id="n3sOGA-Tr4YOv2R35fIZ-7" style="edgeStyle=orthogonalEdgeStyle;rounded=0;orthogonalLoop=1;jettySize=auto;html=1;" edge="1" parent="1" source="n3sOGA-Tr4YOv2R35fIZ-1" target="n3sOGA-Tr4YOv2R35fIZ-6">
          <mxGeometry relative="1" as="geometry" />
        </mxCell>
        <mxCell id="n3sOGA-Tr4YOv2R35fIZ-1" value="Manager" style="html=1;whiteSpace=wrap;" vertex="1" parent="1">
          <mxGeometry x="315" y="380" width="110" height="50" as="geometry" />
        </mxCell>
        <mxCell id="n3sOGA-Tr4YOv2R35fIZ-2" style="edgeStyle=orthogonalEdgeStyle;rounded=0;orthogonalLoop=1;jettySize=auto;html=1;exitX=0.5;exitY=1;exitDx=0;exitDy=0;" edge="1" parent="1" source="n3sOGA-Tr4YOv2R35fIZ-1" target="n3sOGA-Tr4YOv2R35fIZ-1">
          <mxGeometry relative="1" as="geometry" />
        </mxCell>
        <mxCell id="n3sOGA-Tr4YOv2R35fIZ-4" value="«interface»&lt;br&gt;&lt;b&gt;IPreviewDisplay&lt;/b&gt;" style="html=1;whiteSpace=wrap;" vertex="1" parent="1">
          <mxGeometry x="475" y="380" width="110" height="50" as="geometry" />
        </mxCell>
        <mxCell id="n3sOGA-Tr4YOv2R35fIZ-6" value="«interface»&lt;br&gt;&lt;b&gt;IPreviewServer&lt;/b&gt;" style="html=1;whiteSpace=wrap;" vertex="1" parent="1">
          <mxGeometry x="155" y="380" width="110" height="50" as="geometry" />
        </mxCell>
        <mxCell id="n3sOGA-Tr4YOv2R35fIZ-38" style="edgeStyle=orthogonalEdgeStyle;rounded=0;orthogonalLoop=1;jettySize=auto;html=1;entryX=1;entryY=0.5;entryDx=0;entryDy=0;" edge="1" parent="1" source="n3sOGA-Tr4YOv2R35fIZ-13" target="n3sOGA-Tr4YOv2R35fIZ-14">
          <mxGeometry relative="1" as="geometry" />
        </mxCell>
        <mxCell id="n3sOGA-Tr4YOv2R35fIZ-13" value="React preview" style="html=1;whiteSpace=wrap;" vertex="1" parent="1">
          <mxGeometry x="630" y="190" width="110" height="50" as="geometry" />
        </mxCell>
        <mxCell id="n3sOGA-Tr4YOv2R35fIZ-35" style="edgeStyle=orthogonalEdgeStyle;rounded=0;orthogonalLoop=1;jettySize=auto;html=1;entryX=0.5;entryY=1;entryDx=0;entryDy=0;" edge="1" parent="1" source="n3sOGA-Tr4YOv2R35fIZ-14" target="n3sOGA-Tr4YOv2R35fIZ-27">
          <mxGeometry relative="1" as="geometry" />
        </mxCell>
        <mxCell id="n3sOGA-Tr4YOv2R35fIZ-14" value="AUT" style="html=1;whiteSpace=wrap;" vertex="1" parent="1">
          <mxGeometry x="315" y="190" width="110" height="50" as="geometry" />
        </mxCell>
        <mxCell id="n3sOGA-Tr4YOv2R35fIZ-40" style="edgeStyle=orthogonalEdgeStyle;rounded=0;orthogonalLoop=1;jettySize=auto;html=1;entryX=0;entryY=0.5;entryDx=0;entryDy=0;" edge="1" parent="1" source="n3sOGA-Tr4YOv2R35fIZ-16" target="n3sOGA-Tr4YOv2R35fIZ-14">
          <mxGeometry relative="1" as="geometry" />
        </mxCell>
        <mxCell id="n3sOGA-Tr4YOv2R35fIZ-16" value="Webpack bundler" style="html=1;whiteSpace=wrap;" vertex="1" parent="1">
          <mxGeometry x="-20" y="190" width="110" height="50" as="geometry" />
        </mxCell>
        <mxCell id="n3sOGA-Tr4YOv2R35fIZ-39" style="edgeStyle=orthogonalEdgeStyle;rounded=0;orthogonalLoop=1;jettySize=auto;html=1;entryX=0;entryY=0.5;entryDx=0;entryDy=0;" edge="1" parent="1" source="n3sOGA-Tr4YOv2R35fIZ-19" target="n3sOGA-Tr4YOv2R35fIZ-14">
          <mxGeometry relative="1" as="geometry" />
        </mxCell>
        <mxCell id="n3sOGA-Tr4YOv2R35fIZ-19" value="Proxy bundler" style="html=1;whiteSpace=wrap;" vertex="1" parent="1">
          <mxGeometry x="-20" y="110" width="110" height="50" as="geometry" />
        </mxCell>
        <mxCell id="n3sOGA-Tr4YOv2R35fIZ-21" value="MSW externals" style="html=1;whiteSpace=wrap;" vertex="1" parent="1">
          <mxGeometry x="630" y="110" width="110" height="50" as="geometry" />
        </mxCell>
        <mxCell id="n3sOGA-Tr4YOv2R35fIZ-27" value="«interface»&lt;br&gt;&lt;b&gt;IExternals&lt;/b&gt;" style="html=1;whiteSpace=wrap;" vertex="1" parent="1">
          <mxGeometry x="315" y="110" width="110" height="50" as="geometry" />
        </mxCell>
        <mxCell id="n3sOGA-Tr4YOv2R35fIZ-31" value="" style="endArrow=block;dashed=1;endFill=0;endSize=12;html=1;rounded=0;jumpSize=6;exitX=0;exitY=0.5;exitDx=0;exitDy=0;entryX=1;entryY=0.5;entryDx=0;entryDy=0;" edge="1" parent="1" source="n3sOGA-Tr4YOv2R35fIZ-21" target="n3sOGA-Tr4YOv2R35fIZ-27">
          <mxGeometry width="160" relative="1" as="geometry">
            <mxPoint x="640" y="345" as="sourcePoint" />
            <mxPoint x="590" y="345" as="targetPoint" />
          </mxGeometry>
        </mxCell>
        <mxCell id="n3sOGA-Tr4YOv2R35fIZ-32" value="Pure externals" style="html=1;whiteSpace=wrap;" vertex="1" parent="1">
          <mxGeometry x="630" y="30" width="110" height="50" as="geometry" />
        </mxCell>
        <mxCell id="n3sOGA-Tr4YOv2R35fIZ-34" value="" style="endArrow=block;dashed=1;endFill=0;endSize=12;html=1;rounded=0;jumpSize=6;exitX=0;exitY=0.5;exitDx=0;exitDy=0;entryX=1;entryY=0.5;entryDx=0;entryDy=0;" edge="1" parent="1" source="n3sOGA-Tr4YOv2R35fIZ-32" target="n3sOGA-Tr4YOv2R35fIZ-27">
          <mxGeometry width="160" relative="1" as="geometry">
            <mxPoint x="640" y="145" as="sourcePoint" />
            <mxPoint x="435" y="145" as="targetPoint" />
            <Array as="points">
              <mxPoint x="560" y="55" />
              <mxPoint x="560" y="135" />
            </Array>
          </mxGeometry>
        </mxCell>
        <mxCell id="n3sOGA-Tr4YOv2R35fIZ-41" value="" style="endArrow=block;dashed=1;endFill=0;endSize=12;html=1;rounded=0;jumpSize=6;exitX=0.5;exitY=1;exitDx=0;exitDy=0;entryX=1;entryY=0.5;entryDx=0;entryDy=0;" edge="1" parent="1" source="n3sOGA-Tr4YOv2R35fIZ-13" target="n3sOGA-Tr4YOv2R35fIZ-4">
          <mxGeometry width="160" relative="1" as="geometry">
            <mxPoint x="640" y="65" as="sourcePoint" />
            <mxPoint x="435" y="145" as="targetPoint" />
            <Array as="points">
              <mxPoint x="685" y="405" />
            </Array>
          </mxGeometry>
        </mxCell>
        <mxCell id="n3sOGA-Tr4YOv2R35fIZ-42" value="" style="endArrow=block;dashed=1;endFill=0;endSize=12;html=1;rounded=0;jumpSize=6;exitX=0.5;exitY=1;exitDx=0;exitDy=0;entryX=0;entryY=0.5;entryDx=0;entryDy=0;" edge="1" parent="1" source="n3sOGA-Tr4YOv2R35fIZ-16" target="n3sOGA-Tr4YOv2R35fIZ-6">
          <mxGeometry width="160" relative="1" as="geometry">
            <mxPoint x="695" y="250" as="sourcePoint" />
            <mxPoint x="595" y="415" as="targetPoint" />
            <Array as="points">
              <mxPoint x="35" y="405" />
            </Array>
          </mxGeometry>
        </mxCell>
        <mxCell id="n3sOGA-Tr4YOv2R35fIZ-43" value="" style="endArrow=block;dashed=1;endFill=0;endSize=12;html=1;rounded=0;jumpSize=6;exitX=0;exitY=0.5;exitDx=0;exitDy=0;entryX=0;entryY=0.5;entryDx=0;entryDy=0;" edge="1" parent="1" source="n3sOGA-Tr4YOv2R35fIZ-19" target="n3sOGA-Tr4YOv2R35fIZ-6">
          <mxGeometry width="160" relative="1" as="geometry">
            <mxPoint x="45" y="250" as="sourcePoint" />
            <mxPoint x="150" y="410" as="targetPoint" />
            <Array as="points">
              <mxPoint x="-30" y="135" />
              <mxPoint x="-30" y="405" />
            </Array>
          </mxGeometry>
        </mxCell>
        <mxCell id="n3sOGA-Tr4YOv2R35fIZ-49" value="Адаптеры внешние среды" style="html=1;whiteSpace=wrap;fillColor=#e1d5e7;strokeColor=#9673a6;dashed=1;dashPattern=12 12;" vertex="1" parent="1">
          <mxGeometry x="760" y="80" width="110" height="50" as="geometry" />
        </mxCell>
        <mxCell id="n3sOGA-Tr4YOv2R35fIZ-52" value="Адаптеры AUT" style="html=1;whiteSpace=wrap;fillColor=#ffe6cc;strokeColor=#d79b00;dashed=1;dashPattern=12 12;" vertex="1" parent="1">
          <mxGeometry x="760" y="240" width="110" height="50" as="geometry" />
        </mxCell>
        <mxCell id="n3sOGA-Tr4YOv2R35fIZ-53" value="Менеджер&lt;div&gt;историй&lt;/div&gt;" style="html=1;whiteSpace=wrap;fillColor=#dae8fc;strokeColor=#6c8ebf;dashed=1;dashPattern=12 12;" vertex="1" parent="1">
          <mxGeometry x="315" y="470" width="110" height="50" as="geometry" />
        </mxCell>
        <mxCell id="n3sOGA-Tr4YOv2R35fIZ-54" value="Серверы AUT" style="html=1;whiteSpace=wrap;fillColor=#f5f5f5;strokeColor=#666666;dashed=1;dashPattern=12 12;fontColor=#333333;" vertex="1" parent="1">
          <mxGeometry x="-150" y="80" width="110" height="50" as="geometry" />
        </mxCell>
        <mxCell id="n3sOGA-Tr4YOv2R35fIZ-55" value="AUT" style="html=1;whiteSpace=wrap;fillColor=#d5e8d4;strokeColor=#82b366;dashed=1;dashPattern=12 12;" vertex="1" parent="1">
          <mxGeometry x="315" y="-40" width="110" height="50" as="geometry" />
        </mxCell>
      </root>
    </mxGraphModel>
  </diagram>
</mxfile>
